<svg width="50" height="50" viewBox="0 0 50 50" fill="none" xmlns="http://www.w3.org/2000/svg">
<path d="M48.5144 20.9626L40.2727 29.2043L35.5691 24.4922L39.124 20.9626C39.4069 20.6321 39.3878 20.1398 39.0801 19.8321C38.7727 19.5248 38.2805 19.5057 37.95 19.7886L34.3871 23.3101L32.0391 20.9541L40.2727 12.7123C40.5955 12.3876 40.5955 11.8632 40.2727 11.5384C39.9479 11.2156 39.4235 11.2156 39.0988 11.5384L30.266 20.3715C30.1083 20.5276 30.0197 20.7406 30.0197 20.9626C30.0197 21.1845 30.1083 21.3971 30.266 21.5536L31.4481 22.7272L30.266 23.9097C28.8685 22.5109 26.6799 22.2882 25.0295 23.3768L24.3803 22.7272C23.6003 21.9492 22.5434 21.5122 21.4414 21.5118C20.9207 21.5118 20.404 21.6077 19.9178 21.7951L18.4943 20.3715L19.0853 19.7886C19.243 19.6321 19.3317 19.4195 19.3317 19.1976C19.3317 18.9756 19.243 18.7626 19.0853 18.6065L10.8188 10.3648C10.4924 10.0404 9.96477 10.0425 9.64079 10.3689C9.31641 10.6953 9.31844 11.2225 9.64486 11.5469L17.2955 19.1976L16.7045 19.7801L12.542 23.9011L9.60339 20.9541C9.44689 20.7963 9.23429 20.7077 9.01235 20.7077C8.7904 20.7077 8.5774 20.7963 8.4213 20.9541C8.09814 21.2788 8.09814 21.8032 8.4213 22.128L11.368 25.0751L10.1859 26.2487L9.07861 27.4726L1.42794 19.7886C1.27185 19.6309 1.05884 19.5423 0.836898 19.5423C0.614951 19.5423 0.402354 19.6309 0.245853 19.7886C-0.0769053 20.1134 -0.0769053 20.6378 0.245853 20.9626L8.48756 29.2043C8.64488 29.36 8.85747 29.447 9.07861 29.4458C9.30015 29.447 9.51274 29.36 9.67006 29.2043L10.8188 28.0303L11.9924 29.2043C10.3676 30.8299 10.3676 33.4644 11.9924 35.09L13.5578 36.6302C13.7139 36.7879 13.9269 36.8765 14.1488 36.8765C14.3708 36.8765 14.5834 36.7879 14.7399 36.6302C15.0626 36.3054 15.0626 35.781 14.7399 35.4562L13.1997 33.9164C12.7293 33.4477 12.4651 32.8111 12.4651 32.1473C12.4651 31.4831 12.7293 30.8465 13.1997 30.3783L13.7826 29.7953L19.6764 23.9011C20.6658 22.9625 22.217 22.9625 23.2064 23.9011L28.501 29.1958C28.7839 29.5262 28.7648 30.0185 28.4575 30.3262C28.1498 30.6335 27.6575 30.6526 27.3274 30.3697L23.4893 26.532C23.1609 26.2056 22.6296 26.2072 22.3031 26.5361C21.9767 26.8649 21.9784 27.3958 22.3072 27.7222L26.1449 31.5603C26.8587 32.2794 27.936 32.4965 28.8721 32.1095C29.8087 31.7225 30.4184 30.8083 30.416 29.7953C30.4152 29.1332 30.1518 28.4982 29.6831 28.0303L26.2535 24.6003C27.2096 24.167 28.3331 24.358 29.092 25.0832L36.1602 32.1514C36.6256 32.6205 36.8862 33.2554 36.8846 33.9164C36.8862 34.5774 36.6256 35.2119 36.1602 35.681L33.8041 38.0371L31.39 40.4431L29.6831 42.1581L24.9714 46.8698C24.6466 47.1926 24.1222 47.1926 23.7974 46.8698C23.4747 46.5454 23.4747 46.021 23.7974 45.6963L29.1339 40.3846C29.3713 40.1813 29.475 39.8618 29.4018 39.5578C29.3286 39.2537 29.0912 39.0163 28.7872 38.9431C28.4827 38.87 28.1636 38.9732 27.9599 39.211L22.6568 44.5056C22.3267 44.7885 21.8345 44.7694 21.5267 44.4621C21.2194 44.1544 21.2003 43.6621 21.4832 43.3317L26.7779 38.0371C26.9356 37.881 27.0242 37.668 27.0242 37.446C27.0242 37.2241 26.9356 37.0115 26.7779 36.855C26.4531 36.5322 25.9287 36.5322 25.6039 36.855L20.3007 42.1581C19.9764 42.4809 19.452 42.4809 19.1272 42.1581C18.9695 42.0016 18.8809 41.789 18.8809 41.5671C18.8809 41.3451 18.9695 41.1321 19.1272 40.976L24.4218 35.681C24.5795 35.5249 24.6681 35.3119 24.6681 35.09C24.6681 34.868 24.5795 34.6554 24.4218 34.4989C24.097 34.1761 23.5726 34.1761 23.2478 34.4989L17.9451 39.8021C17.6187 40.126 17.0911 40.1244 16.7671 39.798C16.4427 39.4716 16.4447 38.9439 16.7711 38.62L23.173 32.2262C23.4995 31.8998 23.4995 31.3705 23.173 31.0441C22.8466 30.7177 22.3174 30.7177 21.991 31.0441L15.5557 37.4627C14.5818 38.4379 14.5818 40.0175 15.5557 40.9927C15.9858 41.4317 16.565 41.6935 17.1789 41.7252C17.2532 42.9926 18.267 44.0028 19.5349 44.0727C19.6052 45.3438 20.6203 46.3584 21.891 46.4288C21.9149 47.0548 22.1735 47.6495 22.6153 48.0938C23.3657 48.8425 24.5072 49.0364 25.4624 48.5767L26.1449 49.2677C26.8461 49.9693 27.8965 50.1897 28.8209 49.8287C29.7449 49.4677 30.3676 48.5942 30.4075 47.6027C31.0347 47.5836 31.631 47.3243 32.0725 46.8783C32.505 46.4442 32.7627 45.8666 32.7968 45.2548C34.068 45.1849 35.0826 44.1699 35.1529 42.8987C36.1443 42.8593 37.0179 42.2362 37.3789 41.3122C37.7402 40.3878 37.5199 39.3378 36.8179 38.6366L36.2269 38.0537L37.4089 36.8716C38.187 36.0916 38.624 35.0347 38.6244 33.9327C38.6049 33.1087 38.341 32.3091 37.8667 31.6351L39.124 30.3783L39.715 30.9693C40.0398 31.2921 40.5642 31.2921 40.889 30.9693L49.6965 22.1361C50.0193 21.8118 50.0193 21.287 49.6965 20.9626C49.5404 20.8049 49.3274 20.7163 49.1055 20.7163C48.8835 20.7163 48.6709 20.8049 48.5144 20.9626ZM12.0176 26.8482L17.3207 21.5536L18.4943 22.7272L13.1997 28.0303L12.0176 26.8482ZM28.501 48.0438C28.1762 48.3665 27.6518 48.3665 27.3274 48.0438L26.7364 47.4527L27.9185 46.2788L28.501 46.8617C28.6587 47.0178 28.7473 47.2308 28.7473 47.4527C28.7473 47.6747 28.6587 47.8877 28.501 48.0438ZM30.857 45.6877C30.5323 46.0105 30.0079 46.0105 29.6831 45.6877L29.1339 45.0967L29.725 44.5056L30.3075 43.9227L30.8989 44.5056C31.0562 44.6621 31.1448 44.8747 31.1448 45.0967C31.1448 45.3186 31.0562 45.5316 30.8989 45.6877H30.857ZM33.2131 43.3317C32.8883 43.6544 32.3639 43.6544 32.0391 43.3317L31.4481 42.7406L32.622 41.5671L33.2131 42.1581C33.5359 42.4829 33.5359 43.0073 33.2131 43.3317ZM35.5691 40.976C35.4126 41.1333 35.2 41.2219 34.9781 41.2219C34.7562 41.2219 34.5431 41.1333 34.3871 40.976L33.8041 40.3846L34.9614 39.211L35.5525 39.8021C35.8797 40.122 35.8874 40.6468 35.5691 40.976ZM36.7427 30.3783L31.4481 25.0832L32.622 23.9097L37.9252 29.2043L36.7427 30.3783Z" fill="#FFBB01"/>
<path d="M15.8139 13.3201H34.129C34.5888 13.3201 34.9615 12.9473 34.9615 12.4876V0.832504C34.9615 0.372757 34.5888 0 34.129 0H15.8139C15.3542 0 14.9814 0.372757 14.9814 0.832504V12.4876C14.9814 12.9473 15.3542 13.3201 15.8139 13.3201ZM16.6465 9.99005C17.5659 9.99005 18.3115 10.7356 18.3115 11.6551H16.6465V9.99005ZM33.2965 11.6551H31.6315C31.6315 10.7356 32.377 9.99005 33.2965 9.99005V11.6551ZM33.2965 3.33002C32.377 3.33002 31.6315 2.5845 31.6315 1.66501H33.2965V3.33002ZM33.2965 4.99502V8.32504C31.4571 8.32504 29.9665 9.81607 29.9665 11.6551H19.9765C19.9765 9.81607 18.4854 8.32504 16.6465 8.32504V4.99502C18.4854 4.99502 19.9765 3.504 19.9765 1.66501H29.9665C29.9665 3.504 31.4571 4.99502 33.2965 4.99502ZM16.6465 1.66501H18.3115C18.3115 2.5845 17.5659 3.33002 16.6465 3.33002V1.66501Z" fill="#FFBB01"/>
<path d="M24.9713 9.99005C26.8102 9.99005 28.3013 8.49902 28.3013 6.66003C28.3013 4.82104 26.8102 3.33002 24.9713 3.33002C23.1319 3.33002 21.6412 4.82104 21.6412 6.66003C21.6412 8.49902 23.1319 9.99005 24.9713 9.99005ZM24.9713 4.99503C25.8907 4.99503 26.6363 5.74054 26.6363 6.66003C26.6363 7.57953 25.8907 8.32504 24.9713 8.32504C24.0518 8.32504 23.3062 7.57953 23.3062 6.66003C23.3062 5.74054 24.0518 4.99503 24.9713 4.99503Z" fill="#FFBB01"/>
<path d="M31.6313 6.66002C31.6313 7.11977 31.2586 7.49252 30.7988 7.49252C30.3391 7.49252 29.9663 7.11977 29.9663 6.66002C29.9663 6.20027 30.3391 5.82751 30.7988 5.82751C31.2586 5.82751 31.6313 6.20027 31.6313 6.66002Z" fill="#FFBB01"/>
<path d="M19.9763 6.66002C19.9763 7.11977 19.6035 7.49252 19.1438 7.49252C18.684 7.49252 18.3113 7.11977 18.3113 6.66002C18.3113 6.20027 18.684 5.82751 19.1438 5.82751C19.6035 5.82751 19.9763 6.20027 19.9763 6.66002Z" fill="#FFBB01"/>
<path d="M49.805 5.36978L46.475 0.374755C46.3202 0.144272 46.0612 0.00646973 45.784 0.00646973C45.5068 0.00646973 45.2474 0.144272 45.0929 0.374755L41.7629 5.36978C41.6719 5.50514 41.6227 5.66449 41.6215 5.82749V9.15751C41.6215 9.61726 41.9942 9.99001 42.454 9.99001C42.9137 9.99001 43.2865 9.61726 43.2865 9.15751V6.07708L45.784 2.33081L48.2815 6.07708V14.985C48.2815 15.4448 48.6543 15.8175 49.114 15.8175C49.5738 15.8175 49.9465 15.4448 49.9465 14.985V5.82749C49.9453 5.66449 49.8961 5.50514 49.805 5.36978Z" fill="#FFBB01"/>
<path d="M46.6166 11.655V6.66002C46.6166 6.20027 46.2438 5.82751 45.784 5.82751C45.3243 5.82751 44.9515 6.20027 44.9515 6.66002V11.655C44.9515 12.1148 45.3243 12.4875 45.784 12.4875C46.2438 12.4875 46.6166 12.1148 46.6166 11.655Z" fill="#FFBB01"/>
<path d="M0.828736 7.49256H1.66124V17.4826C1.66124 17.9424 2.034 18.3151 2.49374 18.3151C2.95349 18.3151 3.32625 17.9424 3.32625 17.4826V6.66006C3.32625 6.20031 2.95349 5.82755 2.49374 5.82755H2.44375L4.99126 2.26462L7.53877 5.82755H7.48877C7.02902 5.82755 6.65626 6.20031 6.65626 6.66006V8.32507C6.65626 8.78481 7.02902 9.15757 7.48877 9.15757C7.94852 9.15757 8.32127 8.78481 8.32127 8.32507V7.49256H9.15378C9.46475 7.49094 9.74889 7.31655 9.89075 7.03972C10.0326 6.76331 10.0082 6.43039 9.82815 6.17714L5.66563 0.349612C5.50873 0.133356 5.25832 0.00531006 4.99126 0.00531006C4.72419 0.00531006 4.47338 0.133356 4.31688 0.349612L0.154359 6.17714C-0.0261248 6.43039 -0.0501081 6.76331 0.0917591 7.03972C0.233626 7.31655 0.517767 7.49094 0.828736 7.49256Z" fill="#FFBB01"/>
<path d="M4.99121 11.6551V14.1526C4.99121 14.6123 5.36397 14.9851 5.82372 14.9851C6.28346 14.9851 6.65622 14.6123 6.65622 14.1526V11.6551C6.65622 11.1953 6.28346 10.8226 5.82372 10.8226C5.36397 10.8226 4.99121 11.1953 4.99121 11.6551Z" fill="#FFBB01"/>
</svg>
