<svg width="50" height="50" viewBox="0 0 50 50" fill="none" xmlns="http://www.w3.org/2000/svg">
<path d="M42.1107 36.7029L39.1611 39.6525L37.3945 37.8778C37.0679 37.5511 36.5381 37.5511 36.2115 37.8778C35.8848 38.2045 35.8848 38.7342 36.2115 39.0609L38.5695 41.419C38.7257 41.5768 38.9389 41.6655 39.1611 41.6655C39.3832 41.6655 39.596 41.5768 39.7526 41.419L43.3271 37.8778C43.5647 37.6744 43.6684 37.3546 43.5952 37.0503C43.522 36.7456 43.2844 36.508 42.9801 36.4347C42.6758 36.3615 42.356 36.4653 42.1521 36.7029H42.1107Z" fill="#FFBB01"/>
<path d="M43.3271 30.9123V28.3292C43.3271 27.8691 42.954 27.496 42.4939 27.496H39.9943V26.6628C39.9943 25.2824 41.1135 24.1632 42.4939 24.1632C42.954 24.1632 43.3271 23.7901 43.3271 23.33C43.3271 22.8698 42.954 22.4968 42.4939 22.4968C40.1932 22.4968 38.3278 24.3621 38.3278 26.6628V27.496H35.8282C35.3681 27.496 34.995 27.8691 34.995 28.3292V30.9123C30.7219 32.8708 28.3903 37.5414 29.3924 42.1334C30.3948 46.7258 34.4604 50.0001 39.161 50.0001C43.8613 50.0001 47.9273 46.7258 48.9297 42.1334C49.9318 37.5414 47.6002 32.8708 43.3271 30.9123ZM39.9943 48.3263V47.4931C39.9943 47.033 39.6212 46.6599 39.161 46.6599C38.7009 46.6599 38.3278 47.033 38.3278 47.4931V48.3263C34.3546 47.9455 31.2097 44.8006 30.8289 40.8274H31.6621C32.1223 40.8274 32.4953 40.4543 32.4953 39.9942C32.4953 39.5341 32.1223 39.161 31.6621 39.161H30.8289C31.143 36.0491 33.1731 33.3753 36.0865 32.237C36.4071 32.1133 36.6187 31.8057 36.6199 31.4619V29.1625H41.6192V31.4619C41.62 31.8057 41.8316 32.1133 42.1522 32.237C45.0981 33.3505 47.1644 36.0291 47.4932 39.161H46.66C46.1998 39.161 45.8267 39.5341 45.8267 39.9942C45.8267 40.4543 46.1998 40.8274 46.66 40.8274H47.4932C47.1124 44.8006 43.9675 47.9455 39.9943 48.3263Z" fill="#FFBB01"/>
<path d="M26.8377 43.327C26.6628 43.327 4.16606 43.327 4.16606 43.327C2.78565 43.327 1.66642 42.2078 1.66642 40.8274V14.1646H44.9935V29.5457C44.9935 30.0058 45.3665 30.3789 45.8267 30.3789C46.2868 30.3789 46.6599 30.0058 46.6599 29.5457V8.33212C46.6599 6.03143 44.7945 4.16606 42.4938 4.16606H40.8274V3.33285C40.8274 2.87271 40.4543 2.49964 39.9942 2.49964C39.5341 2.49964 39.161 2.87271 39.161 3.33285V6.6657C39.161 7.58598 38.4148 8.33212 37.4946 8.33212C36.5743 8.33212 35.8281 7.58598 35.8281 6.6657V3.33285C35.8281 2.41257 36.5743 1.66642 37.4946 1.66642C37.9547 1.66642 38.3278 1.29335 38.3278 0.833212C38.3278 0.373074 37.9547 0 37.4946 0C35.654 0 34.1617 1.4923 34.1617 3.33285V4.16606H26.6628V3.33285C26.6628 2.87271 26.2897 2.49964 25.8296 2.49964C25.3694 2.49964 24.9964 2.87271 24.9964 3.33285V6.6657C24.9964 7.58598 24.2502 8.33212 23.3299 8.33212C22.4097 8.33212 21.6635 7.58598 21.6635 6.6657V3.33285C21.6635 2.41257 22.4097 1.66642 23.3299 1.66642C23.7901 1.66642 24.1632 1.29335 24.1632 0.833212C24.1632 0.373074 23.7901 0 23.3299 0C21.4894 0 19.9971 1.4923 19.9971 3.33285V4.16606H12.4982V3.33285C12.4982 2.87271 12.1251 2.49964 11.665 2.49964C11.2048 2.49964 10.8318 2.87271 10.8318 3.33285V6.6657C10.8318 7.58598 10.0856 8.33212 9.16534 8.33212C8.24506 8.33212 7.49891 7.58598 7.49891 6.6657V3.33285C7.49891 2.41257 8.24506 1.66642 9.16534 1.66642C9.62547 1.66642 9.99855 1.29335 9.99855 0.833212C9.99855 0.373074 9.62547 0 9.16534 0C7.32478 0 5.83249 1.4923 5.83249 3.33285V4.16606H4.16606C1.86537 4.16606 0 6.03143 0 8.33212V40.8274C0 43.1281 1.86537 44.9935 4.16606 44.9935H23.3299C27.7043 44.9935 27.7043 44.9935 27.7043 44.1603C27.7055 43.9389 27.6185 43.7257 27.4626 43.5687C27.2975 43.4043 27.0709 43.3165 26.8377 43.327ZM4.16606 5.83249H5.83249V6.6657C5.83249 8.50625 7.32478 9.99855 9.16534 9.99855C11.0059 9.99855 12.4982 8.50625 12.4982 6.6657V5.83249H19.9971V6.6657C19.9971 8.50625 21.4894 9.99855 23.3299 9.99855C25.1705 9.99855 26.6628 8.50625 26.6628 6.6657V5.83249H34.1617V6.6657C34.1617 8.50625 35.654 9.99855 37.4946 9.99855C39.3351 9.99855 40.8274 8.50625 40.8274 6.6657V5.83249H42.4938C43.8742 5.83249 44.9935 6.95171 44.9935 8.33212V12.4982H1.66642V8.33212C1.66642 6.95171 2.78565 5.83249 4.16606 5.83249Z" fill="#FFBB01"/>
<path d="M14.9979 17.4975C14.9979 17.0373 14.6248 16.6642 14.1647 16.6642H7.49898C7.03885 16.6642 6.66577 17.0373 6.66577 17.4975V24.1632C6.66577 24.6233 7.03885 24.9964 7.49898 24.9964H14.1647C14.6248 24.9964 14.9979 24.6233 14.9979 24.1632V17.4975ZM13.3315 23.3299H8.3322V18.3307H13.3315V23.3299Z" fill="#FFBB01"/>
<path d="M14.1647 29.9956C14.6248 29.9956 14.9979 29.6226 14.9979 29.1624C14.9979 28.7023 14.6248 28.3292 14.1647 28.3292H7.49898C7.03885 28.3292 6.66577 28.7023 6.66577 29.1624V35.8281C6.66577 36.2883 7.03885 36.6613 7.49898 36.6613H14.1647C14.6248 36.6613 14.9979 36.2883 14.9979 35.8281V32.4953C14.9979 32.0351 14.6248 31.6621 14.1647 31.6621C13.7045 31.6621 13.3315 32.0351 13.3315 32.4953V34.9949H8.3322V29.9956H14.1647Z" fill="#FFBB01"/>
<path d="M19.164 28.3292C18.7039 28.3292 18.3308 28.7023 18.3308 29.1624V35.8281C18.3308 36.2883 18.7039 36.6613 19.164 36.6613H25.8297C26.2898 36.6613 26.6629 36.2883 26.6629 35.8281V29.1624C26.6629 28.7023 26.2898 28.3292 25.8297 28.3292H19.164ZM24.9965 34.9949H19.9972V29.9956H24.9965V34.9949Z" fill="#FFBB01"/>
<path d="M37.4946 23.3299C37.9548 23.3299 38.3278 22.9569 38.3278 22.4967V17.4975C38.3278 17.0373 37.9548 16.6642 37.4946 16.6642H30.8289C30.3688 16.6642 29.9957 17.0373 29.9957 17.4975V24.1632C29.9957 24.6233 30.3688 24.9964 30.8289 24.9964C31.2891 24.9964 31.6621 24.6233 31.6621 24.1632V18.3307H36.6614V22.4967C36.6614 22.9569 37.0345 23.3299 37.4946 23.3299Z" fill="#FFBB01"/>
<path d="M26.4213 16.9059C26.2646 16.7481 26.0519 16.6594 25.8297 16.6594C25.6076 16.6594 25.3944 16.7481 25.2382 16.9059L22.4969 19.6553L19.7556 16.9059C19.4289 16.5792 18.8992 16.5792 18.5725 16.9059C18.2458 17.2326 18.2458 17.7623 18.5725 18.089L21.3219 20.8303L18.5725 23.5716C18.4146 23.7278 18.3259 23.941 18.3259 24.1632C18.3259 24.3853 18.4146 24.5985 18.5725 24.7547C18.7287 24.9126 18.9419 25.0012 19.164 25.0012C19.3862 25.0012 19.5989 24.9126 19.7556 24.7547L22.4969 22.0053L25.2382 24.7547C25.3944 24.9126 25.6076 25.0012 25.8297 25.0012C26.0519 25.0012 26.2646 24.9126 26.4213 24.7547C26.5791 24.5985 26.6678 24.3853 26.6678 24.1632C26.6678 23.941 26.5791 23.7278 26.4213 23.5716L23.6718 20.8303L26.4213 18.089C26.5791 17.9328 26.6678 17.7196 26.6678 17.4975C26.6678 17.2753 26.5791 17.0621 26.4213 16.9059Z" fill="#FFBB01"/>
</svg>
