<svg width="50" height="50" viewBox="0 0 50 50" fill="none" xmlns="http://www.w3.org/2000/svg">
<path d="M49.9035 11.8519C49.7314 11.212 49.3116 10.6664 48.7371 10.3357C48.1623 10.0033 47.4788 9.91339 46.8376 10.0855C46.1973 10.258 45.6517 10.6774 45.3209 11.2519L44.9043 11.9768C44.5085 11.7494 44.0028 11.8833 43.7713 12.2771L41.655 15.8845L40.93 15.4679C40.738 15.3568 40.5093 15.3267 40.2953 15.3845C40.0809 15.4426 39.8987 15.5834 39.7884 15.7762C39.5626 16.1745 39.7002 16.6806 40.0968 16.9093L40.8218 17.3259L33.7397 29.5988L31.9899 34.2733L31.1567 35.831C30.6689 36.6797 30.721 37.7346 31.2901 38.5308L29.4154 40.8302L28.8906 39.5141C28.6539 38.9274 28.1059 38.5255 27.4757 38.4762C26.8451 38.4266 26.2409 38.7382 25.9159 39.2805L25.616 39.7887L25.3329 36.4559C25.2678 35.6675 24.6571 35.0336 23.872 34.9384C23.0864 34.8436 22.3427 35.3143 22.0917 36.0645L20.042 42.2134C19.8988 42.6483 20.1332 43.117 20.5669 43.2634C20.6482 43.3013 20.7357 43.324 20.8252 43.3297C21.1832 43.331 21.5022 43.1027 21.6169 42.7634L23.658 36.6146L23.9497 39.997C24.0099 40.7187 24.5286 41.3188 25.234 41.4823C25.9395 41.6459 26.6693 41.335 27.0408 40.7138L27.3491 40.2053L27.8658 41.5136C28.0851 42.0649 28.581 42.4583 29.1681 42.5458C29.7552 42.6332 30.3442 42.4018 30.7153 41.9384L32.6567 39.4807C32.8715 39.5368 33.0928 39.5649 33.3149 39.5641C34.2079 39.571 35.037 39.1007 35.4894 38.3306L36.3226 36.9392L39.4971 33.0816L46.6541 20.6586L47.3791 21.0752C47.5723 21.1859 47.7131 21.3686 47.7705 21.5838C47.8282 21.7974 47.7981 22.0252 47.6875 22.2168L44.3547 27.991C44.229 28.1805 44.1863 28.4133 44.2367 28.6354C44.2872 28.8571 44.4259 29.0487 44.6212 29.1655C44.8132 29.277 45.0419 29.3071 45.2558 29.2493C45.4702 29.1911 45.6525 29.0504 45.7628 28.8575L49.0955 23.0833C49.4279 22.5085 49.5178 21.825 49.3453 21.1839C49.1728 20.5435 48.7534 19.9979 48.1789 19.6672L47.454 19.2506L49.5369 15.6428C49.7644 15.247 49.6305 14.7417 49.2371 14.5098L49.6537 13.7848C49.995 13.201 50.0853 12.5037 49.9035 11.8519ZM46.7623 12.0851C46.8726 11.8922 47.0557 11.751 47.2709 11.6937C47.4849 11.6408 47.7111 11.6705 47.9039 11.7771C48.0972 11.8873 48.2379 12.0704 48.2957 12.2852C48.3486 12.4992 48.3189 12.7254 48.2123 12.9182L47.7957 13.6432L46.3458 12.81L46.7623 12.0851ZM35.406 35.3481L34.9894 35.1064L33.7563 34.3896L34.9394 31.2236L37.5639 32.7399L35.406 35.3481ZM32.9065 37.7557C32.5546 37.5104 32.4463 37.0385 32.6567 36.6642L33.0733 35.9396L34.5228 36.7728L34.1062 37.4893C33.9895 37.6919 33.7934 37.8359 33.5651 37.8867C33.3369 37.9372 33.0981 37.89 32.9065 37.7557ZM38.5138 31.3738L35.631 29.7074L42.2966 18.1591L45.1794 19.8254L38.5138 31.3738ZM46.0126 18.384L43.1297 16.7177L44.7961 13.8348L47.6789 15.5012L46.0126 18.384Z" fill="#FFBB01"/>
<path d="M13.1476 37.3436L10.1985 40.285L8.43203 38.5186C8.10697 38.1955 7.58216 38.1955 7.2571 38.5186C7.09925 38.6752 7.01056 38.888 7.01056 39.1101C7.01056 39.3322 7.09925 39.5454 7.2571 39.7016L9.02356 41.4681C9.33601 41.7781 9.7583 41.9518 10.1985 41.9514C10.6411 41.9538 11.0671 41.7801 11.3816 41.4681L14.3225 38.5186C14.6057 38.1878 14.5866 37.6951 14.279 37.3876C13.971 37.0796 13.4784 37.0605 13.1476 37.3436Z" fill="#FFBB01"/>
<path d="M3.33282 39.585C3.33282 43.4966 6.50367 46.6671 10.415 46.6671C14.3262 46.6671 17.4971 43.4966 17.4971 39.585C17.4971 39.1248 17.124 38.7518 16.6639 38.7518C16.2038 38.7518 15.8307 39.1248 15.8307 39.585C15.8307 42.576 13.406 45.0007 10.415 45.0007C7.42392 45.0007 4.99921 42.576 4.99921 39.585C4.99921 36.5939 7.42392 34.1692 10.415 34.1692C11.5874 34.166 12.7286 34.5463 13.6643 35.2526C14.0325 35.5288 14.5549 35.454 14.8307 35.0858C15.1069 34.7176 15.0325 34.1957 14.6643 33.9194C12.5183 32.31 9.64685 32.0512 7.24777 33.2506C4.84827 34.4503 3.33282 36.9027 3.33282 39.585Z" fill="#FFBB01"/>
<path d="M29.9948 6.67383C30.455 6.67383 30.828 6.30117 30.828 5.84064C30.828 5.38051 30.455 5.00745 29.9948 5.00745H8.33185C7.87172 5.00745 7.49866 5.38051 7.49866 5.84064V9.1734C7.49866 9.63394 7.87172 10.0066 8.33185 10.0066H29.9948C30.455 10.0066 30.828 9.63394 30.828 9.1734C30.828 8.71328 30.455 8.34021 29.9948 8.34021H9.16504V6.67383H29.9948Z" fill="#FFBB01"/>
<path d="M10.8315 11.673C10.3714 11.673 9.99829 12.0461 9.99829 12.5062C9.99829 12.9668 10.3714 13.3394 10.8315 13.3394H27.4953C27.9554 13.3394 28.3285 12.9668 28.3285 12.5062C28.3285 12.0461 27.9554 11.673 27.4953 11.673H10.8315Z" fill="#FFBB01"/>
<path d="M32.4945 17.5053H14.1643C13.7042 17.5053 13.3311 17.8784 13.3311 18.3385C13.3311 18.799 13.7042 19.1717 14.1643 19.1717H32.4945C32.9546 19.1717 33.3277 18.799 33.3277 18.3385C33.3277 17.8784 32.9546 17.5053 32.4945 17.5053Z" fill="#FFBB01"/>
<path d="M24.1625 23.3377C24.1625 22.8776 23.7895 22.5045 23.3294 22.5045H6.66553C6.2054 22.5045 5.83234 22.8776 5.83234 23.3377C5.83234 23.7982 6.2054 24.1709 6.66553 24.1709H23.3294C23.7895 24.1709 24.1625 23.7982 24.1625 23.3377Z" fill="#FFBB01"/>
<path d="M32.4944 22.5045H26.6621C26.202 22.5045 25.8289 22.8776 25.8289 23.3377C25.8289 23.7982 26.202 24.1709 26.6621 24.1709H32.4944C32.9546 24.1709 33.3276 23.7982 33.3276 23.3377C33.3276 22.8776 32.9546 22.5045 32.4944 22.5045Z" fill="#FFBB01"/>
<path d="M14.9974 28.3368C15.4576 28.3368 15.8306 27.9642 15.8306 27.5037C15.8306 27.0435 15.4576 26.6705 14.9974 26.6705H6.66553C6.2054 26.6705 5.83234 27.0435 5.83234 27.5037C5.83234 27.9642 6.2054 28.3368 6.66553 28.3368H14.9974Z" fill="#FFBB01"/>
<path d="M18.3301 28.3368H24.1625C24.6226 28.3368 24.9957 27.9642 24.9957 27.5037C24.9957 27.0435 24.6226 26.6705 24.1625 26.6705H18.3301C17.87 26.6705 17.4969 27.0435 17.4969 27.5037C17.4969 27.9642 17.87 28.3368 18.3301 28.3368Z" fill="#FFBB01"/>
<path d="M37.4936 38.3352C37.0335 38.3352 36.6604 38.7082 36.6604 39.1684V47.5003C36.6604 47.9608 36.2874 48.3335 35.8272 48.3335H2.49957C2.03945 48.3335 1.66638 47.9608 1.66638 47.5003V2.50794C1.66638 2.04781 2.03945 1.67474 2.49957 1.67474H35.8272C36.2874 1.67474 36.6604 2.04781 36.6604 2.50794V18.1555C36.6604 18.6156 37.0335 18.9887 37.4936 18.9887C37.9537 18.9887 38.3268 18.6156 38.3268 18.1555V2.50794C38.3268 1.12756 37.2076 0.00836182 35.8272 0.00836182H2.49957C1.11919 0.00836182 0 1.12756 0 2.50794V47.5003C0 48.8811 1.11919 49.9998 2.49957 49.9998H35.8272C37.2076 49.9998 38.3268 48.8811 38.3268 47.5003V39.1684C38.3268 38.7082 37.9537 38.3352 37.4936 38.3352Z" fill="#FFBB01"/>
</svg>
