<svg width="50" height="50" viewBox="0 0 50 50" fill="none" xmlns="http://www.w3.org/2000/svg">
<path d="M49.1667 24.1667H30.1082C29.648 24.1667 29.2749 24.5398 29.2749 25C29.2749 25.4602 29.648 25.8334 30.1082 25.8334H48.3333V34.1667H44.1667V28.3334C44.1667 27.8731 43.7935 27.5 43.3333 27.5C42.8731 27.5 42.5 27.8731 42.5 28.3334V34.1667H20V25.8334H25C25.4602 25.8334 25.8333 25.4602 25.8333 25C25.8333 24.5398 25.4602 24.1667 25 24.1667H19.1667C18.7065 24.1667 18.3333 24.5398 18.3333 25V35C18.3333 35.4602 18.7065 35.8334 19.1667 35.8334H26.6667V37.5H19.1667C18.7065 37.5 18.3333 37.8731 18.3333 38.3334V44.1667H15.8333V43.3334C15.8333 42.8731 15.4602 42.5 15 42.5H12.5V38.3334C12.5 37.8731 12.1269 37.5 11.6667 37.5C11.2065 37.5 10.8333 37.8731 10.8333 38.3334V43.3334C10.8333 43.7936 11.2065 44.1667 11.6667 44.1667H14.1667V45.8334H5.83333V44.1667H8.33333C8.79354 44.1667 9.16667 43.7936 9.16667 43.3334V38.3334C9.16667 37.8731 8.79354 37.5 8.33333 37.5C7.87313 37.5 7.5 37.8731 7.5 38.3334V42.5H5C4.53979 42.5 4.16667 42.8731 4.16667 43.3334V44.1667H0.833333C0.373128 44.1667 0 44.5398 0 45C0 45.4602 0.373128 45.8334 0.833333 45.8334H4.16667V46.6667C4.16667 47.1269 4.53979 47.5 5 47.5H15C15.4602 47.5 15.8333 47.1269 15.8333 46.6667V45.8334H18.3333V48.3334C18.3333 48.7936 18.7065 49.1667 19.1667 49.1667H49.1667C49.6269 49.1667 50 48.7936 50 48.3334V38.3334C50 37.8731 49.6269 37.5 49.1667 37.5H41.6667V35.8334H49.1667C49.6269 35.8334 50 35.4602 50 35V25C50 24.5398 49.6269 24.1667 49.1667 24.1667ZM48.3333 47.5H20V39.1667H42.5V45C42.5 45.4602 42.8731 45.8334 43.3333 45.8334C43.7935 45.8334 44.1667 45.4602 44.1667 45V39.1667H48.3333V47.5ZM40 37.5H28.3333V35.8334H40V37.5Z" fill="#FFBB01"/>
<path d="M24.9999 27.5C23.6193 27.5 22.4999 28.6194 22.4999 30C22.4999 31.381 23.6193 32.5 24.9999 32.5C26.3805 32.5 27.4999 31.381 27.4999 30C27.4999 28.6194 26.3805 27.5 24.9999 27.5ZM24.9999 30.8333C24.5397 30.8333 24.1665 30.4602 24.1665 30C24.1665 29.5398 24.5397 29.1667 24.9999 29.1667C25.4601 29.1667 25.8332 29.5398 25.8332 30C25.8332 30.4602 25.4601 30.8333 24.9999 30.8333Z" fill="#FFBB01"/>
<path d="M30.0001 32.5C30.4603 32.5 30.8334 32.1269 30.8334 31.6667V28.3333C30.8334 27.8731 30.4603 27.5 30.0001 27.5C29.5399 27.5 29.1667 27.8731 29.1667 28.3333V31.6667C29.1667 32.1269 29.5399 32.5 30.0001 32.5Z" fill="#FFBB01"/>
<path d="M34.1667 31.6667V28.3333C34.1667 27.8731 33.7935 27.5 33.3333 27.5C32.8731 27.5 32.5 27.8731 32.5 28.3333V31.6667C32.5 32.1269 32.8731 32.5 33.3333 32.5C33.7935 32.5 34.1667 32.1269 34.1667 31.6667Z" fill="#FFBB01"/>
<path d="M37.4999 31.6667V28.3333C37.4999 27.8731 37.1268 27.5 36.6666 27.5C36.2064 27.5 35.8333 27.8731 35.8333 28.3333V31.6667C35.8333 32.1269 36.2064 32.5 36.6666 32.5C37.1268 32.5 37.4999 32.1269 37.4999 31.6667Z" fill="#FFBB01"/>
<path d="M40.8332 31.6667V28.3333C40.8332 27.8731 40.46 27.5 39.9998 27.5C39.5396 27.5 39.1665 27.8731 39.1665 28.3333V31.6667C39.1665 32.1269 39.5396 32.5 39.9998 32.5C40.46 32.5 40.8332 32.1269 40.8332 31.6667Z" fill="#FFBB01"/>
<path d="M26.6665 42.5C26.2063 42.5 25.8332 42.8732 25.8332 43.3334C25.8332 43.7936 25.4601 44.1667 24.9999 44.1667C24.5397 44.1667 24.1665 43.7936 24.1665 43.3334C24.1665 42.8732 24.5397 42.5 24.9999 42.5C25.4601 42.5 25.8332 42.1269 25.8332 41.6667C25.8332 41.2065 25.4601 40.8334 24.9999 40.8334C23.6193 40.8334 22.4999 41.9528 22.4999 43.3334C22.4999 44.7144 23.6193 45.8334 24.9999 45.8334C26.3805 45.8334 27.4999 44.7144 27.4999 43.3334C27.4999 42.8732 27.1267 42.5 26.6665 42.5Z" fill="#FFBB01"/>
<path d="M30.0001 40.8334C29.5399 40.8334 29.1667 41.2065 29.1667 41.6667V45C29.1667 45.4602 29.5399 45.8334 30.0001 45.8334C30.4603 45.8334 30.8334 45.4602 30.8334 45V41.6667C30.8334 41.2065 30.4603 40.8334 30.0001 40.8334Z" fill="#FFBB01"/>
<path d="M33.3333 40.8334C32.8731 40.8334 32.5 41.2065 32.5 41.6667V45C32.5 45.4602 32.8731 45.8334 33.3333 45.8334C33.7935 45.8334 34.1667 45.4602 34.1667 45V41.6667C34.1667 41.2065 33.7935 40.8334 33.3333 40.8334Z" fill="#FFBB01"/>
<path d="M36.6666 40.8334C36.2064 40.8334 35.8333 41.2065 35.8333 41.6667V45C35.8333 45.4602 36.2064 45.8334 36.6666 45.8334C37.1268 45.8334 37.4999 45.4602 37.4999 45V41.6667C37.4999 41.2065 37.1268 40.8334 36.6666 40.8334Z" fill="#FFBB01"/>
<path d="M39.9998 40.8334C39.5396 40.8334 39.1665 41.2065 39.1665 41.6667V45C39.1665 45.4602 39.5396 45.8334 39.9998 45.8334C40.46 45.8334 40.8332 45.4602 40.8332 45V41.6667C40.8332 41.2065 40.46 40.8334 39.9998 40.8334Z" fill="#FFBB01"/>
<path d="M6.31676 29.8418C6.42703 29.8906 6.54625 29.9158 6.66669 29.9167C7.05284 29.911 7.38406 29.6404 7.46747 29.2636C7.55048 28.8864 7.36412 28.5019 7.01663 28.3334C3.09939 26.5382 0.961124 22.2572 1.8795 18.047C2.79747 13.8368 6.52428 10.8346 10.8334 10.8334C11.6789 10.833 12.5204 10.9506 13.3334 11.1833C13.7484 11.3034 14.1858 11.0861 14.3417 10.6837C16.4388 5.24422 21.6704 1.65942 27.5 1.66675C34.1398 1.6993 39.8771 6.31356 41.3334 12.7918C41.4079 13.1259 41.6789 13.3802 42.0166 13.4335C45.6535 14.0146 48.3305 17.1506 48.3334 20.8334C48.3297 21.0759 48.313 21.318 48.2833 21.5585C48.2528 21.7823 48.3146 22.0094 48.4542 22.1868C48.5942 22.3642 48.8001 22.4773 49.0251 22.5001C49.2477 22.5233 49.4702 22.4561 49.6424 22.3133C49.8149 22.1709 49.9227 21.965 49.9418 21.742C49.9785 21.4405 49.998 21.1374 50 20.8334C50.0171 16.5365 47.0309 12.811 42.8333 11.8918C41.0034 4.91382 34.714 0.0358877 27.5 8.03839e-05C21.2403 -0.0198577 15.5636 3.67073 13.0416 9.40031C12.3161 9.24446 11.5755 9.16593 10.8334 9.16675C5.74547 9.17204 1.34687 12.7174 0.260847 17.6881C-0.824765 22.6588 1.69436 27.7153 6.31676 29.8418Z" fill="#FFBB01"/>
<path d="M13.3333 30.5087C13.4021 30.5205 13.4729 30.5205 13.5417 30.5087C14.4918 30.267 15.4032 29.8938 16.25 29.4003C16.4416 29.2888 16.5808 29.1057 16.637 28.8916C16.6931 28.6772 16.6618 28.4497 16.5499 28.2585C16.3184 27.8646 15.813 27.7307 15.4167 27.9586C14.6989 28.3745 13.9278 28.6914 13.125 28.9002C12.6648 28.9575 12.3385 29.3775 12.3958 29.8377C12.4532 30.2979 12.8731 30.6242 13.3333 30.5668V30.5087Z" fill="#FFBB01"/>
<path d="M10.0001 35.8334C10.4603 35.8334 10.8335 35.4602 10.8335 35V21.9169L12.6417 24.6253C12.7951 24.858 13.0547 24.9988 13.3335 25C13.4974 25.0021 13.6578 24.9524 13.7916 24.8584C14.1721 24.6041 14.2762 24.091 14.0252 23.7085L10.6919 18.7085C10.6919 18.7085 10.6919 18.7085 10.6499 18.6666C10.4921 18.4697 10.2528 18.3549 10.0001 18.3549C9.74744 18.3549 9.50818 18.4697 9.3503 18.6666C9.3503 18.6666 9.3503 18.6666 9.30839 18.7085L5.97506 23.7085C5.77161 24.0877 5.89043 24.5593 6.24931 24.797C6.60779 25.0346 7.08834 24.9601 7.35852 24.6253L9.16679 21.9169V35C9.16679 35.4602 9.53992 35.8334 10.0001 35.8334Z" fill="#FFBB01"/>
<path d="M31.2914 15.1417C30.9094 14.8906 30.3959 14.9948 30.1415 15.3752L28.3333 18.0836V8.33339C28.3333 7.87319 27.9602 7.50006 27.4999 7.50006C27.0397 7.50006 26.6666 7.87319 26.6666 8.33339V18.0836L24.8584 15.3752C24.7086 15.0965 24.4144 14.9264 24.0983 14.9362C23.7821 14.9459 23.4989 15.1335 23.3667 15.4208C23.2348 15.7081 23.2767 16.0454 23.4749 16.292L26.8082 21.292C26.9632 21.5223 27.2224 21.6602 27.4999 21.6602C27.7775 21.6602 28.0366 21.5223 28.1917 21.292L31.525 16.292C31.7761 15.9095 31.6719 15.396 31.2914 15.1417Z" fill="#FFBB01"/>
</svg>
