<svg width="35" height="44" viewBox="0 0 35 44" fill="none" xmlns="http://www.w3.org/2000/svg">
<path d="M32.4962 0.0057373H2.49971C1.11925 0.0057373 0 1.12499 0 2.50545V40.8343C0 42.2148 1.11925 43.334 2.49971 43.334H16.6647C17.1249 43.334 17.498 42.961 17.498 42.5008C17.498 42.0406 17.1249 41.6676 16.6647 41.6676H2.49971C2.03956 41.6676 1.66647 41.2945 1.66647 40.8343V7.50487H33.3295V40.8343C33.3295 41.2945 32.9564 41.6676 32.4962 41.6676H29.9965C29.5364 41.6676 29.1633 42.0406 29.1633 42.5008C29.1633 42.961 29.5364 43.334 29.9965 43.334H32.4962C33.8767 43.334 34.9959 42.2148 34.9959 40.8343V2.50545C34.9959 1.12499 33.8767 0.0057373 32.4962 0.0057373ZM1.66647 5.83839V2.50545C1.66647 2.0453 2.03956 1.67221 2.49971 1.67221H32.4962C32.9564 1.67221 33.3295 2.0453 33.3295 2.50545V5.83839H1.66647Z" fill="#FFBB01"/>
</svg>
