<svg width="18" height="18" viewBox="0 0 18 18" fill="none" xmlns="http://www.w3.org/2000/svg">
<path d="M2.53018 17.4536H8.16405V11.4902H6.13991V9.52431H8.16405V7.06689C8.16405 5.71186 9.29908 4.60948 10.6942 4.60948H13.2244V6.57541H11.2003C10.6422 6.57541 10.1882 7.01634 10.1882 7.55838V9.52431H13.1331L12.7957 11.4902H10.1882V17.4536H14.7425C16.1377 17.4536 17.2727 16.3512 17.2727 14.9962V3.13503C17.2727 1.77999 16.1377 0.677612 14.7425 0.677612H2.53018C1.13502 0.677612 0 1.77999 0 3.13503V14.9962C0 16.3512 1.13502 17.4536 2.53018 17.4536ZM1.01207 3.13503C1.01207 2.32203 1.69311 1.66058 2.53018 1.66058H14.7425C15.5796 1.66058 16.2606 2.32203 16.2606 3.13503V14.9962C16.2606 15.8092 15.5796 16.4706 14.7425 16.4706H11.2003V12.4732H13.6531L14.3278 8.54134H11.2003V7.55838H14.2365V3.62651H10.6942C8.74099 3.62651 7.15198 5.16982 7.15198 7.06689V8.54134H5.12783V12.4732H7.15198V16.4706H2.53018C1.69311 16.4706 1.01207 15.8092 1.01207 14.9962V3.13503Z" fill="white"/>
</svg>
