<svg width="18" height="17" viewBox="0 0 18 17" fill="none" xmlns="http://www.w3.org/2000/svg">
<path d="M8.63635 0C3.88976 0 0 3.81066 0 8.42074C0 13.0041 3.85431 16.776 8.63635 16.776C13.4125 16.776 17.2727 13.0097 17.2727 8.42074C17.2727 3.81066 13.3829 0 8.63635 0ZM10.1545 15.6455C9.66872 15.7438 9.15254 15.793 8.63635 15.793C8.12017 15.793 7.60399 15.7438 7.11824 15.6455V13.3454C7.11824 12.7949 7.27005 12.5984 7.47247 12.3329C7.57552 12.2185 7.63772 12.1158 8.09988 11.4385L7.32066 11.3205C5.31668 11.0355 4.52731 10.0229 4.21354 9.23656C3.80871 8.18486 4.02128 6.86758 4.75002 6.03219C4.86137 5.90433 4.95243 5.68802 4.87152 5.46199C4.71958 5.0098 4.73987 4.29229 4.84108 4.01698C5.37769 4.09147 5.92945 4.46482 6.38963 4.73462C6.60167 4.8548 6.71289 4.82306 6.81462 4.83292C7.1844 4.75817 7.7612 4.57732 8.6465 4.57732C9.19299 4.57732 9.76993 4.65591 10.3367 4.81321C10.4381 4.8109 10.6009 4.89461 10.8832 4.73462C11.3642 4.44997 11.8973 4.08942 12.4316 4.01698C12.5328 4.29229 12.5531 5.0098 12.4013 5.46199C12.3203 5.68802 12.4113 5.90433 12.5228 6.03219C13.2514 6.86771 13.464 8.18486 13.0592 9.23656C12.7454 10.0229 11.956 11.0355 9.95205 11.3205L9.17283 11.4385C9.65053 12.1386 9.70087 12.2226 9.80037 12.3329C10.0027 12.5984 10.1545 12.7949 10.1545 13.3454V15.6455ZM11.1665 15.3605V13.3454C11.1665 12.7851 11.045 12.4116 10.8831 12.1363C12.4215 11.7334 13.5146 10.8486 14.0003 9.58059C14.5165 8.24386 14.2838 6.65141 13.4234 5.55043C13.5753 4.89192 13.5753 3.8401 13.211 3.34861C13.049 3.13244 12.8263 3.01443 12.543 3.01443C12.5328 3.01443 12.5328 3.01443 12.5328 3.01443C11.7481 3.05564 11.1304 3.43949 10.4682 3.83024C9.86099 3.67294 9.2436 3.59435 8.62621 3.59435C7.9988 3.59435 7.37126 3.6828 6.81475 3.83024C6.11764 3.42195 5.50591 3.05462 4.69942 3.01443C4.4464 3.01443 4.22369 3.13244 4.06173 3.34861C3.69749 3.8401 3.69749 4.89192 3.8493 5.55043C2.98891 6.65141 2.75618 8.25359 3.27237 9.58059C3.75811 10.8486 4.85123 11.7334 6.38963 12.1363C6.26404 12.3497 6.16468 12.625 6.12554 12.9976C5.81481 13.1016 5.54531 13.1355 5.29467 13.064C5.03032 12.9881 4.82434 12.8167 4.64539 12.5244C4.24346 11.8686 3.55886 11.3332 2.77938 11.4028L2.86833 12.3819C3.22928 12.3498 3.58851 12.7207 3.77511 13.0265C4.08295 13.53 4.49766 13.8602 5.00805 14.0066C5.38691 14.115 5.73323 14.1125 6.10617 14.0352V15.3605C3.16101 14.3578 1.01207 11.6252 1.01207 8.42074C1.01207 4.35129 4.4464 0.982966 8.63635 0.982966C12.8263 0.982966 16.2606 4.35129 16.2606 8.42074C16.2606 11.6252 14.1117 14.3578 11.1665 15.3605Z" fill="white"/>
</svg>
