<svg width="15" height="15" viewBox="0 0 15 15" fill="none" xmlns="http://www.w3.org/2000/svg">
<path d="M11.8438 9.29201C11.5367 8.97226 11.1663 8.8013 10.7738 8.8013C10.3844 8.8013 10.0108 8.96909 9.69104 9.28884L8.69063 10.2861C8.60832 10.2418 8.52601 10.2006 8.44686 10.1595C8.33289 10.1025 8.22525 10.0486 8.13344 9.99166C7.19635 9.39648 6.34473 8.62085 5.52794 7.61727C5.13221 7.11707 4.86628 6.69601 4.67316 6.26862C4.93276 6.03118 5.17337 5.78424 5.40764 5.54681C5.49628 5.45816 5.58493 5.36635 5.67357 5.27771C6.3384 4.61288 6.3384 3.75177 5.67357 3.08694L4.80929 2.22266C4.71115 2.12452 4.60985 2.02321 4.51487 1.9219C4.32492 1.72562 4.12547 1.52301 3.91969 1.33306C3.6126 1.02913 3.24536 0.867676 2.85913 0.867676C2.47289 0.867676 2.09932 1.02913 1.78274 1.33306C1.77957 1.33622 1.77957 1.33622 1.77641 1.33939L0.700017 2.42528C0.294788 2.8305 0.0636807 3.32438 0.013027 3.8974C-0.0629535 4.82183 0.20931 5.68294 0.418256 6.24646C0.931124 7.62994 1.69726 8.91211 2.84013 10.2861C4.22678 11.9418 5.89518 13.2493 7.80103 14.1706C8.52917 14.5157 9.50109 14.9241 10.587 14.9937C10.6535 14.9969 10.7231 15 10.7864 15C11.5177 15 12.1319 14.7373 12.6131 14.2149C12.6163 14.2086 12.6226 14.2054 12.6258 14.1991C12.7904 13.9996 12.9804 13.8192 13.1798 13.6261C13.3159 13.4963 13.4552 13.3601 13.5914 13.2177C13.9048 12.8916 14.0694 12.5117 14.0694 12.1223C14.0694 11.7297 13.9016 11.353 13.5819 11.0364L11.8438 9.29201ZM12.9772 12.6257C12.974 12.6257 12.974 12.6288 12.9772 12.6257C12.8537 12.7586 12.7271 12.8789 12.591 13.0119C12.3852 13.2082 12.1762 13.4139 11.98 13.6451C11.6602 13.987 11.2835 14.1484 10.7896 14.1484C10.7421 14.1484 10.6914 14.1484 10.644 14.1453C9.7037 14.0851 8.82993 13.7179 8.1746 13.4045C6.38272 12.537 4.80929 11.3055 3.5018 9.74473C2.42224 8.44356 1.70043 7.24054 1.22238 5.94887C0.927959 5.16057 0.82032 4.5464 0.867807 3.96705C0.899466 3.59664 1.04193 3.28955 1.3047 3.02679L2.38425 1.94723C2.53938 1.8016 2.704 1.72246 2.86546 1.72246C3.06491 1.72246 3.22637 1.84276 3.32768 1.94407C3.33084 1.94723 3.33401 1.9504 3.33717 1.95356C3.53029 2.13402 3.71391 2.3208 3.90703 2.52025C4.00517 2.62156 4.10647 2.72287 4.20778 2.82734L5.07206 3.69162C5.40764 4.0272 5.40764 4.33745 5.07206 4.67303C4.98025 4.76484 4.89161 4.85665 4.7998 4.94529C4.53386 5.21756 4.2806 5.47083 4.00517 5.71776C3.99884 5.72409 3.9925 5.72726 3.98934 5.73359C3.71708 6.00585 3.76773 6.27179 3.82471 6.45224C3.82788 6.46174 3.83105 6.47123 3.83421 6.48073C4.05899 7.02526 4.37557 7.53813 4.85678 8.14914L4.85995 8.1523C5.73372 9.22869 6.65499 10.0676 7.67123 10.7103C7.80103 10.7926 7.93399 10.8591 8.06063 10.9224C8.1746 10.9794 8.28224 11.0332 8.37404 11.0902C8.38671 11.0965 8.39937 11.106 8.41203 11.1124C8.51967 11.1662 8.62098 11.1915 8.72545 11.1915C8.98822 11.1915 9.15285 11.0269 9.20666 10.9731L10.2894 9.89036C10.397 9.78272 10.568 9.65292 10.7674 9.65292C10.9637 9.65292 11.1252 9.77638 11.2233 9.88402C11.2265 9.88719 11.2265 9.88719 11.2296 9.89036L12.974 11.6347C13.3001 11.9577 13.3001 12.2901 12.9772 12.6257Z" fill="#949494"/>
<path d="M8.09545 3.56805C8.92491 3.70735 9.67838 4.09992 10.2799 4.70143C10.8814 5.30294 11.2708 6.05641 11.4133 6.88587C11.4481 7.09481 11.6286 7.24044 11.8343 7.24044C11.8597 7.24044 11.8818 7.23728 11.9071 7.23411C12.1414 7.19612 12.2966 6.97451 12.2586 6.74024C12.0876 5.73666 11.6127 4.82173 10.8877 4.09675C10.1628 3.37177 9.24782 2.89689 8.24425 2.72594C8.00997 2.68795 7.79153 2.84307 7.75037 3.07418C7.70922 3.30529 7.86118 3.53006 8.09545 3.56805Z" fill="#949494"/>
<path d="M14.9717 6.61682C14.6899 4.96424 13.9111 3.46046 12.7144 2.26377C11.5177 1.06708 10.014 0.288277 8.36139 0.00651579C8.13028 -0.0346403 7.91183 0.123652 7.87068 0.35476C7.83269 0.589033 7.98782 0.807476 8.22209 0.848633C9.69738 1.09873 11.0429 1.79839 12.1129 2.86528C13.183 3.93534 13.8795 5.28083 14.1296 6.75611C14.1644 6.96506 14.3448 7.11069 14.5506 7.11069C14.576 7.11069 14.5981 7.10752 14.6234 7.10436C14.8545 7.06953 15.0128 6.84792 14.9717 6.61682Z" fill="#949494"/>
</svg>
