<svg width="18" height="15" viewBox="0 0 18 15" fill="none" xmlns="http://www.w3.org/2000/svg">
<path d="M17.2727 2.62973C16.1862 2.67836 16.2099 2.67439 16.0871 2.68438L16.7306 0.899553C16.7306 0.899553 14.722 1.61719 14.2128 1.74557C12.8755 0.578169 10.8877 0.526589 9.46657 1.37491C8.30282 2.06977 7.67818 3.26302 7.88652 4.65773C5.62161 4.35248 3.7133 3.30974 2.20666 1.55192L1.73014 0.996057L1.37407 1.63115C0.924043 2.43364 0.774604 3.35121 0.953167 4.21476C1.02644 4.56904 1.15097 4.90693 1.32347 5.22332L0.914687 5.06948L0.866192 5.73285C0.817038 6.40672 1.04805 7.19335 1.48424 7.83688C1.60706 8.01812 1.7652 8.21714 1.96563 8.41348L1.75439 8.382L2.01215 9.14213C2.35096 10.1408 3.05467 10.9135 3.9679 11.3431C3.05585 11.719 2.31907 11.9588 1.10801 12.3457L0 12.6995L1.02341 13.2429C1.41361 13.4502 2.79242 14.1422 4.15477 14.3498C7.18308 14.8111 10.5926 14.4354 12.888 12.4276C14.8213 10.7365 15.4557 8.33093 15.3239 5.82756C15.304 5.44859 15.4109 5.08688 15.6249 4.80927C16.0536 4.25341 17.2701 2.63344 17.2727 2.62973ZM14.8157 4.22052C14.4602 4.68141 14.2822 5.27004 14.3141 5.87774C14.4471 8.40286 13.7397 10.3611 12.2114 11.6978C10.4262 13.2595 7.54666 13.8724 4.31146 13.3795C3.72556 13.2903 3.12003 13.0905 2.61887 12.891C3.63424 12.5517 4.41833 12.2492 5.68461 11.6671L7.45231 10.8545L5.50064 10.7332C4.56579 10.6751 3.78737 10.235 3.30887 9.5206C3.56294 9.50626 3.80792 9.46633 4.05185 9.40029L5.91324 8.89677L4.0363 8.45034C3.12425 8.2334 2.60437 7.70339 2.32882 7.29689C2.14789 7.02978 2.02968 6.75613 1.95878 6.50387C2.14696 6.55289 2.36638 6.58783 2.72021 6.62187L4.45747 6.78877L3.08102 5.74591C2.08924 4.9946 1.6918 3.86586 1.98316 2.78075C5.07842 5.89886 8.71265 5.66451 9.07847 5.74693C8.99796 4.98731 8.99585 4.98552 8.97476 4.9132C8.50629 3.30475 9.53299 2.48804 9.99606 2.21158C10.9633 1.63422 12.4987 1.54718 13.5622 2.49841C13.7919 2.7037 14.1025 2.78447 14.3932 2.71433C14.6541 2.65136 14.8682 2.58467 15.0779 2.5121L14.6414 3.72264L15.1986 3.72302C15.0935 3.85997 14.9673 4.02392 14.8157 4.22052Z" fill="white"/>
</svg>
