<svg width="15" height="18" viewBox="0 0 15 18" fill="none" xmlns="http://www.w3.org/2000/svg">
<path d="M7.43609 9.50201C7.45435 9.50201 7.47261 9.50201 7.49452 9.50201C7.50182 9.50201 7.50912 9.50201 7.51643 9.50201C7.52738 9.50201 7.54199 9.50201 7.55295 9.50201C8.62293 9.48375 9.48841 9.10761 10.1275 8.38821C11.5334 6.80332 11.2997 4.08638 11.2741 3.8271C11.1828 1.88068 10.2626 0.949471 9.50301 0.514905C8.93698 0.189894 8.276 0.0146072 7.53834 0H7.51278C7.50912 0 7.50182 0 7.49817 0H7.47626C7.07091 0 6.27481 0.0657326 5.51158 0.500298C4.7447 0.934863 3.80984 1.86608 3.71854 3.8271C3.69298 4.08638 3.45927 6.80332 4.86521 8.38821C5.50063 9.10761 6.36611 9.48375 7.43609 9.50201ZM4.69358 3.91839C4.69358 3.90744 4.69723 3.89648 4.69723 3.88918C4.81774 1.27083 6.67651 0.989641 7.47261 0.989641H7.48721C7.49452 0.989641 7.50547 0.989641 7.51643 0.989641C8.50242 1.01155 10.1786 1.41325 10.2918 3.88918C10.2918 3.90013 10.2918 3.91109 10.2955 3.91839C10.2991 3.94395 10.5547 6.42719 9.39346 7.73453C8.93333 8.25309 8.31983 8.50872 7.51278 8.51602C7.50547 8.51602 7.50182 8.51602 7.49452 8.51602C7.48721 8.51602 7.48356 8.51602 7.47626 8.51602C6.67286 8.50872 6.0557 8.25309 5.59923 7.73453C4.4416 6.43449 4.68993 3.9403 4.69358 3.91839Z" fill="#949494"/>
<path d="M14.999 14.0083C14.999 14.0046 14.999 14.001 14.999 13.9973C14.999 13.9681 14.9953 13.9389 14.9953 13.906C14.9734 13.183 14.9259 11.4922 13.3411 10.9517C13.3301 10.9481 13.3155 10.9444 13.3045 10.9408C11.6576 10.5208 10.2881 9.57133 10.2735 9.56038C10.0508 9.40335 9.74402 9.45813 9.587 9.68089C9.42997 9.90365 9.48474 10.2104 9.70751 10.3674C9.76959 10.4112 11.223 11.4228 13.0416 11.8902C13.8925 12.1933 13.9874 13.1026 14.013 13.9352C14.013 13.9681 14.013 13.9973 14.0166 14.0265C14.0203 14.3552 13.9984 14.8628 13.94 15.1549C13.3484 15.4909 11.0295 16.6522 7.50181 16.6522C3.98877 16.6522 1.65526 15.4873 1.06002 15.1513C1.00159 14.8592 0.976027 14.3516 0.983331 14.0229C0.983331 13.9937 0.986983 13.9645 0.986983 13.9316C1.01255 13.099 1.10749 12.1897 1.95836 11.8866C3.77697 11.4191 5.23039 10.4039 5.29247 10.3638C5.51523 10.2067 5.57 9.9 5.41298 9.67723C5.25595 9.45447 4.9492 9.3997 4.72644 9.55673C4.71183 9.56768 3.3497 10.5172 1.69543 10.9371C1.68083 10.9408 1.66987 10.9444 1.65892 10.9481C0.0740301 11.4922 0.0265566 13.183 0.00464579 13.9024C0.00464579 13.9352 0.0046457 13.9645 0.000993893 13.9937C0.000993893 13.9973 0.000993893 14.001 0.000993893 14.0046C-0.00265792 14.1945 -0.00630965 15.1696 0.187236 15.6589C0.223754 15.7538 0.289487 15.8342 0.37713 15.889C0.486685 15.962 3.11234 17.6345 7.50546 17.6345C11.8986 17.6345 14.5242 15.9583 14.6338 15.889C14.7178 15.8342 14.7872 15.7538 14.8237 15.6589C15.0063 15.1732 15.0026 14.1982 14.999 14.0083Z" fill="#949494"/>
</svg>
